# xmcd
# 
# Track frame offsets:
#   150
#   14565
#   38044
#   65143
#   86280
#   110591
#   134981
#   159441
#   183480
#   207870
#   232649
#   243822
#   250826
#   266137
#   282443
#   296214
#   308449
# 
# Disc length: 4378 seconds
# 
# Revision: 0
# Processed by: cddbd v1.5.2PL0 Copyright (c) Steve Scherf et al.
# Submitted via: Synapstar 1.0 
# 
DISCID=f5111811
DTITLE=MISC - JAM TRAX 2
DYEAR=1900
DGENRE=Blues
TTITLE0=JAM TRAX 2
TTITLE1=JAM TRAX 2
TTITLE2=JAM TRAX 2
TTITLE3=JAM TRAX 2
TTITLE4=JAM TRAX 2
TTITLE5=JAM TRAX 2
TTITLE6=JAM TRAX 2
TTITLE7=JAM TRAX 2
TTITLE8=JAM TRAX 2
TTITLE9=JAM TRAX 2
TTITLE10=JAM TRAX 2
TTITLE11=JAM TRAX 2
TTITLE12=JAM TRAX 2
TTITLE13=JAM TRAX 2
TTITLE14=JAM TRAX 2
TTITLE15=JAM TRAX 2
TTITLE16=JAM TRAX 2
EXTD=MediaType: Audio CD Producer: Other
EXTT0=
EXTT1=
EXTT2=
EXTT3=
EXTT4=
EXTT5=
EXTT6=
EXTT7=
EXTT8=
EXTT9=
EXTT10=
EXTT11=
EXTT12=
EXTT13=
EXTT14=
EXTT15=
EXTT16=
PLAYORDER=
